<svg width="16" height="17" viewBox="0 0 16 17" fill="none" xmlns="http://www.w3.org/2000/svg">
<path d="M7.99247 16.4933C12.264 16.4933 15.7896 12.9676 15.7896 8.70368C15.7896 4.43973 12.2564 0.914062 7.98493 0.914062C3.72098 0.914062 0.202847 4.43973 0.202847 8.70368C0.202847 12.9676 3.72852 16.4933 7.99247 16.4933ZM7.99247 14.9414C4.5346 14.9414 1.76981 12.1616 1.76981 8.70368C1.76981 5.24581 4.5346 2.47349 7.98493 2.47349C11.4428 2.47349 14.2227 5.24581 14.2302 8.70368C14.2377 12.1616 11.4503 14.9414 7.99247 14.9414ZM10.3354 10.685C10.7196 10.685 10.9607 10.3987 10.9607 9.99191V6.48884C10.9607 5.96903 10.6669 5.72796 10.1922 5.72796H6.66657C6.25977 5.72796 5.99609 5.97656 5.99609 6.35324C5.99609 6.72991 6.25977 6.97852 6.67411 6.97852H7.94727L8.96428 6.85798L7.85686 7.86747L5.22014 10.5042C5.09208 10.6323 5.00921 10.8131 5.00921 10.9939C5.00921 11.3931 5.28795 11.6568 5.67969 11.6568C5.88309 11.6568 6.04883 11.589 6.19196 11.4459L8.81362 8.82422L9.8231 7.72433L9.7101 8.80162V9.99944C9.7101 10.4138 9.9587 10.685 10.3354 10.685Z" fill="#96A6C2"/>
</svg>
