<svg width="6" height="11" viewBox="0 0 6 11" fill="none" xmlns="http://www.w3.org/2000/svg">
<path d="M5.98242 5.44476C5.98242 5.6596 5.90625 5.84375 5.74219 6.00335L1.18359 10.6808C1.05469 10.8158 0.890625 10.8895 0.697266 10.8895C0.310547 10.8895 0 10.5703 0 10.159C0 9.95647 0.0820312 9.77846 0.210938 9.63728L4.31836 5.44476L0.210938 1.25223C0.0820312 1.11105 0 0.926897 0 0.730469C0 0.319196 0.310547 0 0.697266 0C0.890625 0 1.05469 0.0736607 1.18359 0.208705L5.74219 4.88002C5.90625 5.04576 5.98242 5.22991 5.98242 5.44476Z" fill="white"/>
</svg>
