<svg width="6" height="12" viewBox="0 0 6 12" fill="none" xmlns="http://www.w3.org/2000/svg">
<path d="M5.98242 5.94476C5.98242 6.1596 5.90625 6.34375 5.74219 6.50335L1.18359 11.1808C1.05469 11.3158 0.890625 11.3895 0.697266 11.3895C0.310547 11.3895 0 11.0703 0 10.659C0 10.4565 0.0820312 10.2785 0.210938 10.1373L4.31836 5.94476L0.210938 1.75223C0.0820312 1.61105 0 1.4269 0 1.23047C0 0.819196 0.310547 0.5 0.697266 0.5C0.890625 0.5 1.05469 0.573661 1.18359 0.708705L5.74219 5.38002C5.90625 5.54576 5.98242 5.72991 5.98242 5.94476Z" fill="#96A6C2"/>
</svg>
