<svg width="18" height="18" viewBox="0 0 18 18" fill="none" xmlns="http://www.w3.org/2000/svg">
<path d="M8.99184 17.1177C13.6193 17.1177 17.4388 13.2983 17.4388 8.67899C17.4388 4.05971 13.6111 0.240234 8.98368 0.240234C4.3644 0.240234 0.553085 4.05971 0.553085 8.67899C0.553085 13.2983 4.37256 17.1177 8.99184 17.1177ZM8.99184 15.4365C5.24582 15.4365 2.25063 12.425 2.25063 8.67899C2.25063 4.93297 5.24582 1.92962 8.98368 1.92962C12.7297 1.92962 15.7412 4.93297 15.7494 8.67899C15.7575 12.425 12.7379 15.4365 8.99184 15.4365ZM11.53 10.8254C11.9462 10.8254 12.2074 10.5153 12.2074 10.0746V6.27958C12.2074 5.71645 11.8891 5.45529 11.3749 5.45529H7.55546C7.11475 5.45529 6.8291 5.72461 6.8291 6.13267C6.8291 6.54074 7.11475 6.81006 7.56362 6.81006H8.94287L10.0446 6.67948L8.84494 7.77309L5.98849 10.6295C5.84975 10.7683 5.75998 10.9641 5.75998 11.16C5.75998 11.5926 6.06194 11.8782 6.48633 11.8782C6.70668 11.8782 6.88623 11.8048 7.0413 11.6497L9.88142 8.80957L10.975 7.61802L10.8526 8.78509V10.0827C10.8526 10.5316 11.1219 10.8254 11.53 10.8254Z" fill="#96A6C2"/>
</svg>
