<svg width="16" height="18" viewBox="0 0 16 18" fill="none" xmlns="http://www.w3.org/2000/svg">
<path d="M1.47098 14.0736H14.5209C15.3615 14.0736 15.8756 13.6166 15.8756 12.9311C15.8756 12.066 15.0921 11.3233 14.3576 10.6214C13.8353 10.0991 13.6721 9.0463 13.5986 8.13224C13.5741 7.60175 13.5333 7.09576 13.4681 6.61424C13.0355 6.79379 12.5622 6.89989 12.0643 6.89989C9.89341 6.89989 8.1061 5.11257 8.1061 2.93351C8.1061 1.92967 8.48968 1.00745 9.10993 0.313738C8.79164 0.142351 8.40806 0.0362549 7.99184 0.0362549C6.79213 0.0362549 5.90255 0.868705 5.55978 1.94599C3.45417 2.70499 2.57275 4.8106 2.45033 7.79763C2.34424 8.88307 2.2055 10.0583 1.63421 10.6214C0.899693 11.3233 0.116211 12.066 0.116211 12.9311C0.116211 13.6166 0.630371 14.0736 1.47098 14.0736ZM12.0725 5.74915C13.6068 5.74915 14.8881 4.47599 14.8881 2.93351C14.8881 1.39103 13.6068 0.117868 12.0725 0.117868C10.53 0.117868 9.25684 1.39103 9.25684 2.93351C9.25684 4.47599 10.53 5.74915 12.0725 5.74915ZM8 17.4361C9.44454 17.4361 10.4973 16.3996 10.6034 15.2162H5.38839C5.49449 16.3996 6.54729 17.4361 8 17.4361Z" fill="#96A6C2"/>
</svg>
