<svg width="16" height="18" viewBox="0 0 16 18" fill="none" xmlns="http://www.w3.org/2000/svg">
<path d="M1.47098 14.5735H14.5209C15.3615 14.5735 15.8756 14.1165 15.8756 13.4309C15.8756 12.5658 15.0921 11.8232 14.3576 11.1213C13.8353 10.599 13.6721 9.54618 13.5986 8.63212C13.5741 8.10163 13.5333 7.59563 13.4681 7.11412C13.0355 7.29367 12.5622 7.39976 12.0643 7.39976C9.89341 7.39976 8.1061 5.61244 8.1061 3.43338C8.1061 2.42955 8.48968 1.50732 9.10993 0.813616C8.79164 0.642229 8.40806 0.536133 7.99184 0.536133C6.79213 0.536133 5.90255 1.36858 5.55978 2.44587C3.45417 3.20487 2.57275 5.31048 2.45033 8.2975C2.34424 9.38295 2.2055 10.5582 1.63421 11.1213C0.899693 11.8232 0.116211 12.5658 0.116211 13.4309C0.116211 14.1165 0.630371 14.5735 1.47098 14.5735ZM12.0725 6.24902C13.6068 6.24902 14.8881 4.97586 14.8881 3.43338C14.8881 1.8909 13.6068 0.617746 12.0725 0.617746C10.53 0.617746 9.25684 1.8909 9.25684 3.43338C9.25684 4.97586 10.53 6.24902 12.0725 6.24902ZM8 17.936C9.44454 17.936 10.4973 16.8995 10.6034 15.7161H5.38839C5.49449 16.8995 6.54729 17.936 8 17.936Z" fill="#2D74FF"/>
</svg>
