<svg width="16" height="13" viewBox="0 0 16 13" fill="none" xmlns="http://www.w3.org/2000/svg">
<path d="M15.1267 6.6962C15.1267 6.46266 15.0287 6.23666 14.8555 6.07092L9.90596 1.12143C9.71009 0.933088 9.50669 0.85022 9.29575 0.85022C8.81361 0.85022 8.46707 1.18923 8.46707 1.64877C8.46707 1.88984 8.565 2.09324 8.71567 2.24391L10.4107 3.96155L12.5954 5.95792L10.8476 5.85245H1.71707C1.21232 5.85245 0.865784 6.19899 0.865784 6.6962C0.865784 7.18588 1.21232 7.53242 1.71707 7.53242H10.8476L12.5954 7.42695L10.4107 9.42332L8.71567 11.141C8.565 11.2916 8.46707 11.495 8.46707 11.7361C8.46707 12.1956 8.81361 12.5347 9.29575 12.5347C9.50669 12.5347 9.71009 12.4518 9.8909 12.2785L14.8555 7.31395C15.0287 7.14821 15.1267 6.92221 15.1267 6.6962Z" fill="#2D74FF"/>
</svg>
