<svg width="12" height="13" viewBox="0 0 12 13" fill="none" xmlns="http://www.w3.org/2000/svg">
<path d="M0.282358 10.9346C-0.0867825 11.3037 -0.104361 11.9629 0.291147 12.3408C0.669077 12.7363 1.33705 12.7188 1.70619 12.3496L5.96888 8.08691L10.2316 12.3496C10.6095 12.7275 11.2599 12.7363 11.6378 12.3408C12.0333 11.9629 12.0245 11.3037 11.6466 10.9258L7.38392 6.66309L11.6466 2.40918C12.0245 2.02246 12.0333 1.37207 11.6378 0.994141C11.2599 0.598633 10.6095 0.607422 10.2316 0.985352L5.96888 5.24805L1.70619 0.985352C1.33705 0.616211 0.669077 0.598633 0.291147 0.994141C-0.104361 1.37207 -0.0867825 2.03125 0.282358 2.40039L4.54505 6.66309L0.282358 10.9346Z" fill="#2D74FF"/>
</svg>
