<svg width="27" height="27" viewBox="0 0 27 27" fill="none" xmlns="http://www.w3.org/2000/svg">
<path d="M13.5 2.25C12.0226 2.25 10.5597 2.54099 9.19481 3.10636C7.8299 3.67172 6.58971 4.50039 5.54505 5.54505C3.43526 7.65483 2.25 10.5163 2.25 13.5C2.24017 16.0978 3.13964 18.6171 4.7925 20.6213L2.5425 22.8713C2.3864 23.0295 2.28065 23.2303 2.23861 23.4486C2.19656 23.6668 2.2201 23.8926 2.30625 24.0975C2.39969 24.2999 2.55117 24.47 2.74145 24.5862C2.93174 24.7024 3.15225 24.7594 3.375 24.75H13.5C16.4837 24.75 19.3452 23.5647 21.455 21.455C23.5647 19.3452 24.75 16.4837 24.75 13.5C24.75 10.5163 23.5647 7.65483 21.455 5.54505C19.3452 3.43526 16.4837 2.25 13.5 2.25ZM13.5 22.5H6.08625L7.1325 21.4538C7.34203 21.243 7.45964 20.9578 7.45964 20.6606C7.45964 20.3634 7.34203 20.0783 7.1325 19.8675C5.65941 18.396 4.74207 16.4594 4.53678 14.3874C4.33148 12.3154 4.85094 10.2364 6.00663 8.50446C7.16233 6.77254 8.88276 5.4949 10.8748 4.88922C12.8669 4.28354 15.0073 4.38728 16.9315 5.18278C18.8556 5.97828 20.4445 7.41631 21.4272 9.25188C22.41 11.0874 22.726 13.207 22.3213 15.2494C21.9166 17.2918 20.8162 19.1307 19.2077 20.4528C17.5992 21.7749 15.5821 22.4984 13.5 22.5Z" fill="#96A6C2"/>
</svg>
