<svg width="27" height="27" viewBox="0 0 27 27" fill="none" xmlns="http://www.w3.org/2000/svg">
<path d="M13.5 2.25C12.0226 2.25 10.5597 2.54099 9.19481 3.10636C7.8299 3.67172 6.58971 4.50039 5.54505 5.54505C3.43526 7.65483 2.25 10.5163 2.25 13.5C2.24017 16.0978 3.13964 18.6171 4.7925 20.6213L2.5425 22.8713C2.3864 23.0295 2.28065 23.2303 2.23861 23.4486C2.19656 23.6668 2.2201 23.8926 2.30625 24.0975C2.39969 24.2999 2.55117 24.47 2.74145 24.5862C2.93174 24.7024 3.15225 24.7594 3.375 24.75H13.5C16.4837 24.75 19.3452 23.5647 21.455 21.455C23.5647 19.3452 24.75 16.4837 24.75 13.5C24.75 10.5163 23.5647 7.65483 21.455 5.54505C19.3452 3.43526 16.4837 2.25 13.5 2.25Z" fill="#3C7EF7"/>
</svg>
