<svg width="14" height="9" viewBox="0 0 14 9" fill="none" xmlns="http://www.w3.org/2000/svg">
<path d="M7.17004 0.833496C6.9137 0.833496 6.69397 0.928711 6.50354 1.13379L0.922484 6.83203C0.761351 6.99316 0.673461 7.19824 0.673461 7.43994C0.673461 7.92334 1.05432 8.31152 1.54504 8.31152C1.78674 8.31152 1.99914 8.20898 2.1676 8.04785L7.17004 2.91357L12.1725 8.04785C12.3409 8.20898 12.5607 8.31152 12.795 8.31152C13.2858 8.31152 13.6666 7.92334 13.6666 7.43994C13.6666 7.19824 13.5787 6.99316 13.4176 6.83203L7.84387 1.13379C7.64612 0.928711 7.42639 0.833496 7.17004 0.833496Z" fill="#2D74FF"/>
</svg>
