<svg width="14" height="9" viewBox="0 0 14 9" fill="none" xmlns="http://www.w3.org/2000/svg">
<path d="M6.82996 8.1665C7.0863 8.1665 7.30603 8.07129 7.49646 7.86621L13.0775 2.16797C13.2386 2.00684 13.3265 1.80176 13.3265 1.56006C13.3265 1.07666 12.9457 0.688476 12.455 0.688476C12.2133 0.688476 12.0009 0.791015 11.8324 0.952148L6.82996 6.08643L1.82751 0.952148C1.65906 0.791016 1.43933 0.688477 1.20496 0.688477C0.714233 0.688477 0.333374 1.07666 0.333374 1.56006C0.333374 1.80176 0.421264 2.00684 0.582397 2.16797L6.15613 7.86621C6.35388 8.07129 6.57361 8.1665 6.82996 8.1665Z" fill="#96A6C2"/>
</svg>
