<svg width="14" height="16" viewBox="0 0 14 16" fill="none" xmlns="http://www.w3.org/2000/svg">
<path d="M1.35117 13.7966C0.830263 13.7966 0.454529 14.1884 0.454529 14.7166C0.454529 15.2447 0.830263 15.6365 1.35117 15.6365H12.6317C13.1612 15.6365 13.5454 15.2447 13.5454 14.7166C13.5454 14.1884 13.1612 13.7966 12.6317 13.7966H7.20066C7.38853 13.7625 7.55931 13.6603 7.69594 13.5155L13.1526 8.12364C13.3576 7.91921 13.46 7.68923 13.46 7.44221C13.46 6.91409 13.0758 6.53078 12.5634 6.53078C12.2987 6.53078 12.0596 6.64152 11.8888 6.81188L10.1297 8.53251L7.84965 11.0283L7.93505 9.2395V1.30926C7.93505 0.747078 7.55077 0.36377 7.00425 0.36377C6.44919 0.36377 6.06492 0.747078 6.06492 1.30926V9.2395L6.15031 11.0368L3.87029 8.53251L2.11971 6.81188C1.94039 6.633 1.70982 6.53078 1.4451 6.53078C0.924196 6.53078 0.548462 6.91409 0.548462 7.44221C0.548462 7.68923 0.642396 7.91921 0.847341 8.12364L6.30402 13.5155C6.44065 13.6603 6.61144 13.7625 6.79931 13.7966H1.35117Z" fill="#2D74FF"/>
</svg>
