<svg width="12" height="18" viewBox="0 0 12 18" fill="none" xmlns="http://www.w3.org/2000/svg">
<path d="M2.04179 17.0383H9.95822C11.0518 17.0383 11.5905 16.4997 11.5905 15.3081V9.19535C11.5905 8.11806 11.1498 7.57125 10.2357 7.48148V5.46565C10.2357 2.36436 8.1709 0.87085 6 0.87085C3.8291 0.87085 1.7643 2.36436 1.7643 5.46565V7.50596C0.915529 7.63654 0.409531 8.17519 0.409531 9.19535V15.3081C0.409531 16.4997 0.948175 17.0383 2.04179 17.0383ZM3.33127 5.31874C3.33127 3.41717 4.53913 2.37252 6 2.37252C7.45271 2.37252 8.66874 3.41717 8.66874 5.31874V7.46516L3.33127 7.47332V5.31874Z" fill="#96A6C2"/>
</svg>
