<svg width="20" height="18" viewBox="0 0 20 18" fill="none" xmlns="http://www.w3.org/2000/svg">
<path d="M3.8056 17.9687C4.80127 17.9687 7.1762 16.9322 8.66155 15.8876C8.81662 15.7733 8.9472 15.7325 9.07778 15.7325C9.18388 15.7407 9.28181 15.7488 9.37158 15.7488C15.2559 15.7407 19.4671 12.5333 19.4671 8.12619C19.4671 3.90681 15.2477 0.511719 9.99184 0.511719C4.73598 0.511719 0.524765 3.90681 0.524765 8.12619C0.524765 10.7541 2.10805 13.1046 4.78495 14.5491C4.93185 14.6389 4.97266 14.7613 4.89921 14.9082C4.42585 15.6998 3.63421 16.5813 3.30776 16.9975C2.9405 17.4627 3.15269 17.9687 3.8056 17.9687Z" fill="#96A6C2"/>
</svg>
