<svg width="27" height="23" viewBox="0 0 27 23" fill="none" xmlns="http://www.w3.org/2000/svg">
<path d="M15 22.6155C21.0513 22.6155 26.0353 17.6208 26.0353 11.5802C26.0353 5.53962 21.0299 0.544922 14.9893 0.544922C9.37563 0.544922 4.67976 4.84591 4.05009 10.2995C4.71178 10.1501 5.58692 10.1074 6.2913 10.2248C6.92097 5.97719 10.5496 2.75412 14.9893 2.75412C19.888 2.75412 23.8368 6.68157 23.8368 11.5802C23.8368 13.9175 22.9403 16.0306 21.4568 17.5995C20.3576 16.3828 18.031 15.2729 14.9893 15.2729C14.0395 15.2729 13.1537 15.3796 12.3532 15.5717C12.4813 16.084 12.5453 16.6176 12.5453 17.1619C12.5453 18.9015 11.873 20.513 10.7844 21.7617C12.0864 22.306 13.5165 22.6155 15 22.6155ZM14.9893 13.5226C17.0598 13.5333 18.6713 11.7723 18.6713 9.48842C18.6713 7.33259 17.0491 5.52895 14.9893 5.52895C12.9402 5.52895 11.2967 7.33259 11.318 9.48842C11.3287 11.7723 12.9189 13.5013 14.9893 13.5226ZM5.52288 22.6689C8.51117 22.6689 11.0192 20.1715 11.0192 17.1619C11.0192 14.1523 8.54318 11.6656 5.52288 11.6656C2.51326 11.6656 0.0265808 14.1523 0.0265808 17.1619C0.0265808 20.1822 2.51326 22.6689 5.52288 22.6689ZM2.033 17.1619C2.033 16.7243 2.33183 16.4362 2.7694 16.4362H4.78649V14.4191C4.78649 13.9815 5.07464 13.6827 5.52288 13.6827C5.97113 13.6827 6.25928 13.9815 6.25928 14.4191V16.4362H8.27637C8.71394 16.4362 9.01277 16.7243 9.01277 17.1619C9.01277 17.6101 8.71394 17.8983 8.27637 17.8983H6.25928V19.9261C6.25928 20.3636 5.97113 20.6625 5.52288 20.6625C5.07464 20.6625 4.78649 20.3636 4.78649 19.9261V17.8983H2.7694C2.33183 17.8983 2.04367 17.6101 2.033 17.1619Z" fill="#96A6C2"/>
</svg>
