<svg width="16" height="16" viewBox="0 0 16 16" fill="none" xmlns="http://www.w3.org/2000/svg">
<path d="M13.25 0.5H2.75C2.15326 0.5 1.58097 0.737053 1.15901 1.15901C0.737053 1.58097 0.5 2.15326 0.5 2.75V13.25C0.5 13.8467 0.737053 14.419 1.15901 14.841C1.58097 15.2629 2.15326 15.5 2.75 15.5H13.25C13.3734 15.4983 13.4963 15.4857 13.6175 15.4625L13.8425 15.41H13.895H13.9325L14.21 15.305L14.3075 15.2525C14.3825 15.2075 14.465 15.17 14.54 15.1175C14.6401 15.0438 14.7354 14.9636 14.825 14.8775L14.8775 14.81C14.9511 14.7354 15.0188 14.6551 15.08 14.57L15.1475 14.4725C15.1999 14.389 15.245 14.3012 15.2825 14.21C15.3031 14.174 15.3206 14.1364 15.335 14.0975C15.3725 14.0075 15.395 13.91 15.425 13.8125V13.7C15.4675 13.5535 15.4927 13.4024 15.5 13.25V2.75C15.5 2.15326 15.2629 1.58097 14.841 1.15901C14.419 0.737053 13.8467 0.5 13.25 0.5ZM2.75 14C2.55109 14 2.36032 13.921 2.21967 13.7803C2.07902 13.6397 2 13.4489 2 13.25V10.0175L4.4675 7.5425C4.53722 7.4722 4.62017 7.41641 4.71157 7.37833C4.80296 7.34025 4.90099 7.32065 5 7.32065C5.09901 7.32065 5.19704 7.34025 5.28843 7.37833C5.37983 7.41641 5.46278 7.4722 5.5325 7.5425L11.9825 14H2.75ZM14 13.25C13.9993 13.3425 13.9815 13.434 13.9475 13.52C13.9304 13.5566 13.9103 13.5917 13.8875 13.625C13.8674 13.6567 13.8449 13.6868 13.82 13.715L9.8075 9.7025L10.4675 9.0425C10.5372 8.9722 10.6202 8.91641 10.7116 8.87833C10.803 8.84025 10.901 8.82065 11 8.82065C11.099 8.82065 11.197 8.84025 11.2884 8.87833C11.3798 8.91641 11.4628 8.9722 11.5325 9.0425L14 11.5175V13.25ZM14 9.395L12.59 8C12.1608 7.59274 11.5917 7.36571 11 7.36571C10.4083 7.36571 9.83921 7.59274 9.41 8L8.75 8.66L6.59 6.5C6.16079 6.09274 5.59167 5.86571 5 5.86571C4.40833 5.86571 3.83921 6.09274 3.41 6.5L2 7.895V2.75C2 2.55109 2.07902 2.36032 2.21967 2.21967C2.36032 2.07902 2.55109 2 2.75 2H13.25C13.4489 2 13.6397 2.07902 13.7803 2.21967C13.921 2.36032 14 2.55109 14 2.75V9.395ZM9.125 3.5C8.9025 3.5 8.68499 3.56598 8.49998 3.6896C8.31498 3.81321 8.17078 3.98891 8.08564 4.19448C8.00049 4.40005 7.97821 4.62625 8.02162 4.84448C8.06502 5.06271 8.17217 5.26316 8.3295 5.4205C8.48684 5.57783 8.68729 5.68498 8.90552 5.72838C9.12375 5.77179 9.34995 5.74951 9.55552 5.66436C9.76109 5.57922 9.93679 5.43502 10.0604 5.25002C10.184 5.06501 10.25 4.8475 10.25 4.625C10.25 4.32663 10.1315 4.04048 9.9205 3.8295C9.70952 3.61853 9.42337 3.5 9.125 3.5Z" fill="#96A6C2"/>
</svg>
