<svg width="16" height="20" viewBox="0 0 16 20" fill="none" xmlns="http://www.w3.org/2000/svg">
<path d="M7.48584 4.74571C7.59193 4.74571 7.65722 4.68042 7.67355 4.57432C7.91839 3.22771 7.90206 3.21139 9.31396 2.93391C9.42006 2.91759 9.49351 2.85229 9.49351 2.73804C9.49351 2.63194 9.42006 2.56665 9.31396 2.55033C7.91022 2.28101 7.94287 2.25652 7.67355 0.909912C7.65722 0.803816 7.59193 0.738525 7.48584 0.738525C7.37974 0.738525 7.31445 0.803816 7.28997 0.909912C7.02881 2.2402 7.06961 2.26468 5.64955 2.55033C5.54346 2.56665 5.47816 2.63194 5.47816 2.73804C5.47816 2.85229 5.54346 2.91759 5.65771 2.93391C7.06145 3.21139 7.05329 3.22771 7.28997 4.57432C7.31445 4.68042 7.37974 4.74571 7.48584 4.74571ZM3.52762 10.4586C3.69085 10.4586 3.81327 10.3443 3.83775 10.1811C4.12339 8.01838 4.18868 8.01022 6.4412 7.58583C6.59626 7.56135 6.71868 7.44709 6.71868 7.2757C6.71868 7.11248 6.59626 6.99006 6.43303 6.96558C4.19685 6.65545 4.11523 6.59016 3.83775 4.38661C3.81327 4.21523 3.69085 4.10097 3.52762 4.10097C3.35623 4.10097 3.23381 4.21523 3.21749 4.39478C2.94817 6.54935 2.85023 6.54935 0.614046 6.96558C0.450821 6.99822 0.336563 7.11248 0.336563 7.2757C0.336563 7.45525 0.450821 7.56135 0.646691 7.58583C2.8584 7.93677 2.94817 8.00206 3.21749 10.1648C3.23381 10.3443 3.35623 10.4586 3.52762 10.4586ZM9.18338 19.4768C9.42006 19.4768 9.59961 19.3054 9.63225 19.0606C10.2199 14.6372 10.8483 13.9435 15.2227 13.4619C15.4757 13.4293 15.6553 13.2416 15.6553 13.0049C15.6553 12.7682 15.4757 12.5805 15.2227 12.5479C10.8646 12.0419 10.2443 11.389 9.63225 6.94925C9.59145 6.70442 9.42006 6.53303 9.18338 6.53303C8.94671 6.53303 8.76716 6.70442 8.73451 6.94925C8.1469 11.3727 7.51848 12.0664 3.14404 12.5479C2.88288 12.5805 2.71149 12.7682 2.71149 13.0049C2.71149 13.2416 2.88288 13.4293 3.14404 13.4619C7.48584 14.0414 8.08977 14.6208 8.73451 19.0606C8.77532 19.3054 8.94671 19.4768 9.18338 19.4768Z" fill="#96A6C2"/>
</svg>
