<svg width="20" height="20" viewBox="0 0 20 20" fill="none" xmlns="http://www.w3.org/2000/svg">
<path d="M3.02212 11.3439H16.9861C18.757 11.3439 19.6711 10.438 19.6711 8.77312V5.79426C19.6711 4.92916 19.663 4.30891 19.1814 3.89268L16.2515 1.26475C15.3375 0.448626 14.6764 0.171143 13.4033 0.171143H6.60491C5.32359 0.171143 4.67069 0.448626 3.74847 1.26475L0.826733 3.89268C0.345218 4.30891 0.328896 4.92916 0.328896 5.79426V8.77312C0.328896 10.438 1.25112 11.3439 3.02212 11.3439ZM10 7.57342C8.86559 7.57342 8.15556 6.59406 8.15556 5.68V5.65552C8.15556 5.32091 7.95152 5.01078 7.50265 5.01078H2.50796C2.08357 5.01078 1.93667 4.81491 2.2876 4.49662L4.94818 2.10536C5.39705 1.68914 5.70717 1.52591 6.40904 1.52591H13.5991C14.301 1.52591 14.603 1.68914 15.0518 2.10536L17.7206 4.48846C18.0797 4.82307 17.9164 5.01078 17.5002 5.01078H12.4974C12.0485 5.01078 11.8445 5.32091 11.8445 5.65552V5.68C11.8445 6.59406 11.1426 7.57342 10 7.57342ZM3.02212 19.0074H16.9861C18.7407 19.0074 19.6711 18.0933 19.6711 16.3468V13.4985C19.6711 12.9925 19.3691 12.5681 18.855 12.5681H12.5137C12.0648 12.5681 11.8608 12.8782 11.8608 13.2129V13.2373C11.8608 14.1596 11.1507 15.1389 10 15.1389C8.84926 15.1389 8.13923 14.1596 8.13923 13.2373V13.2129C8.13923 12.8782 7.9352 12.5681 7.48633 12.5681H1.16951C0.655346 12.5681 0.328896 12.9925 0.328896 13.4985V16.3468C0.328896 18.1015 1.25928 19.0074 3.02212 19.0074Z" fill="#96A6C2"/>
</svg>
