<svg width="24" height="25" viewBox="0 0 24 25" fill="none" xmlns="http://www.w3.org/2000/svg">
<path d="M3.41184 24.086H20.5982C22.7578 24.086 23.9029 22.961 23.9029 20.8114V16.0001C23.9029 15.6284 23.7221 15.2166 23.4208 14.9655C23.7422 14.4934 23.9029 13.8806 23.9029 13.1574V7.82371C23.9029 6.75898 23.8929 5.99559 23.3002 5.48331L19.6942 2.24894C18.5692 1.24447 17.7556 0.902954 16.1886 0.902954H7.82144C6.24443 0.902954 5.44086 1.24447 4.30581 2.24894L0.70983 5.48331C0.117196 5.99559 0.0971069 6.75898 0.0971069 7.82371V13.1574C0.0971069 13.8806 0.257821 14.4934 0.57925 14.9655C0.277911 15.2166 0.0971069 15.6284 0.0971069 16.0001V20.8114C0.0971069 22.971 1.2422 24.086 3.41184 24.086ZM12 9.90295C10.654 9.90295 9.81028 8.74782 9.81028 7.663V7.62282C9.81028 7.23108 9.56921 6.85943 9.04688 6.85943H2.77903C2.25671 6.85943 2.0759 6.61836 2.50782 6.22661L5.78237 3.28353C6.33483 2.77126 6.71653 2.57036 7.58037 2.57036H16.4297C17.2935 2.57036 17.6652 2.77126 18.2176 3.28353L21.5022 6.21657C21.9442 6.6284 21.7433 6.85943 21.231 6.85943H14.9632C14.4308 6.85943 14.1998 7.23108 14.1998 7.62282V7.663C14.1998 8.74782 13.356 9.90295 12 9.90295ZM3.51229 14.4733C2.57813 14.4733 2.0759 13.9911 2.0759 13.0168V8.62728H8.09264C8.41407 10.4152 9.97099 11.7411 12 11.7411C14.029 11.7411 15.5859 10.4152 15.9074 8.62728H21.9241V13.0168C21.9241 13.9911 21.4118 14.4733 20.4978 14.4733H3.51229ZM12 17.7579C10.9152 17.7579 10.1518 17.0045 9.90068 16.1507H14.0993C13.8482 17.0045 13.0848 17.7579 12 17.7579ZM3.51229 22.1373C2.57813 22.1373 2.0759 21.6552 2.0759 20.6809V16.3114H8.09264C8.41407 18.0994 9.97099 19.4253 12 19.4253C14.029 19.4253 15.5859 18.0994 15.9074 16.3114H21.9241V20.6809C21.9241 21.6552 21.4118 22.1373 20.4978 22.1373H3.51229Z" fill="#2D74FF"/>
</svg>
